<svg xmlns="http://www.w3.org/2000/svg" viewBox="0 0 99.91 166.08"><defs><style>.cls-1{fill:#fff;}</style></defs><g id="Layer_2" data-name="Layer 2"><g id="Layer_1-2" data-name="Layer 1"><path class="cls-1" d="M87.27,132.63c-10.86.59-20.48,6.76-31.4,8-21.41,2.34-39.28-9.73-54.14-23.77a.56.56,0,0,0-.95.44c1.48,17.72,12.55,34,28.4,42.39a57.45,57.45,0,0,0,45.56,3.16c1.38-.49,2.78-1,4.19-1.59l1.9-.74a59.87,59.87,0,0,0,12.7-8c3.68-3.24,7.86-9.36,5.87-14.53-1.54-4-4.85-5-8.74-5.29A25.57,25.57,0,0,0,87.27,132.63Z"/><path class="cls-1" d="M24,36.9V20.54H57.09A12.7,12.7,0,0,1,64,22.45a13.74,13.74,0,0,1,4.87,5.4A17.35,17.35,0,0,1,70.67,36a17.1,17.1,0,0,1-1.52,7.35,72.1,72.1,0,0,1,17.95,9,27.72,27.72,0,0,0,2.72-4,33.8,33.8,0,0,0,4.53-16.88A35.05,35.05,0,0,0,91,16.45,30.33,30.33,0,0,0,81.2,4.61,24.94,24.94,0,0,0,66.15,0H0V38.6A212.6,212.6,0,0,1,24,36.9Z"/><path class="cls-1" d="M93.39,71.54C69.89,39.16,0,51.7,0,51.7V80.78A43.17,43.17,0,0,0,21.64,118a43,43,0,0,0,21.68,5.44c17.4,0,39,1.23,50.85-14.21q5.4-7,5.4-17.5A33.41,33.41,0,0,0,93.39,71.54Zm-20,23.73c-3.57,5.91-9.57,8-16.19,8-7.9,0-16.61,1-23.54-3.51A21.32,21.32,0,0,1,24,82.07V70.67c0-.53,17.86.37,19.51.59A73.3,73.3,0,0,1,63.9,76.72c4.43,2,9.49,5.42,10.94,10.34A10.28,10.28,0,0,1,73.37,95.27Z"/></g></g></svg>